HIERARCHY
ROOT Joint0
{
  OFFSET 0.0000 0.0000 1.0000
  CHANNELS 6 Xposition Yposition Zposition Zrotation Xrotation Yrotation
  JOINT Joint1
  {
    OFFSET 0.0811 -0.0899 -0.0114
    CHANNELS 3 Zrotation Xrotation Yrotation
    JOINT Joint4
    {
      OFFSET 0.0297 -0.3677 -0.0039
      CHANNELS 3 Zrotation Xrotation Yrotation
      JOINT Joint7
      {
        OFFSET -0.0120 -0.3841 -0.0490
        CHANNELS 3 Zrotation Xrotation Yrotation
        JOINT Joint10
        {
          OFFSET 0.0247 -0.0555 0.1226
          CHANNELS 3 Zrotation Xrotation Yrotation
          End Site
          {
            OFFSET 0.0247 -0.0555 0.1226
          }
        }
      }
    }
  }
  JOINT Joint2
  {
    OFFSET -0.0773 -0.0878 -0.0084
    CHANNELS 3 Zrotation Xrotation Yrotation
    JOINT Joint5
    {
      OFFSET -0.0344 -0.3716 -0.0062
      CHANNELS 3 Zrotation Xrotation Yrotation
      JOINT Joint8
      {
        OFFSET 0.0139 -0.3835 -0.0484
        CHANNELS 3 Zrotation Xrotation Yrotation
        JOINT Joint11
        {
          OFFSET -0.0293 -0.0469 0.1263
          CHANNELS 3 Zrotation Xrotation Yrotation
          End Site
          {
            OFFSET -0.0293 -0.0469 0.1263
          }
        }
      }
    }
  }
  JOINT Joint3
  {
    OFFSET -0.0027 0.1037 -0.0232
    CHANNELS 3 Zrotation Xrotation Yrotation
    JOINT Joint6
    {
      OFFSET 0.0030 0.1296 -0.0027
      CHANNELS 3 Zrotation Xrotation Yrotation
      JOINT Joint9
      {
        OFFSET 0.0015 0.0533 0.0332
        CHANNELS 3 Zrotation Xrotation Yrotation
        JOINT Joint12
        {
          OFFSET -0.0004 0.2283 -0.0600
          CHANNELS 3 Zrotation Xrotation Yrotation
          JOINT Joint15
          {
            OFFSET 0.0048 0.0641 0.0558
            CHANNELS 3 Zrotation Xrotation Yrotation
            End Site
            {
              OFFSET 0.0048 0.0641 0.0558
            }
          }
        }
        JOINT Joint13
        {
          OFFSET 0.0787 0.1275 -0.0430
          CHANNELS 3 Zrotation Xrotation Yrotation
          JOINT Joint16
          {
            OFFSET 0.0914 0.0355 -0.0086
            CHANNELS 3 Zrotation Xrotation Yrotation
            JOINT Joint18
            {
              OFFSET 0.2512 -0.0141 -0.0294
              CHANNELS 3 Zrotation Xrotation Yrotation
              JOINT Joint20
              {
                OFFSET 0.2431 0.0092 0.0027
                CHANNELS 3 Zrotation Xrotation Yrotation
                JOINT Joint22
                {
                  OFFSET 0.1053 -0.0108 0.0234
                  CHANNELS 3 Zrotation Xrotation Yrotation
                  JOINT Joint23
                  {
                    OFFSET 0.0332 0.0042 0.0030
                    CHANNELS 3 Zrotation Xrotation Yrotation
                    JOINT Joint24
                    {
                      OFFSET 0.0234 -0.0009 0.0005
                      CHANNELS 3 Zrotation Xrotation Yrotation
                      End Site
                      {
                        OFFSET 0.0234 -0.0009 0.0005
                      }
                    }
                  }
                }
                JOINT Joint25
                {
                  OFFSET 0.1126 -0.0078 -0.0002
                  CHANNELS 3 Zrotation Xrotation Yrotation
                  JOINT Joint26
                  {
                    OFFSET 0.0317 0.0021 -0.0047
                    CHANNELS 3 Zrotation Xrotation Yrotation
                    JOINT Joint27
                    {
                      OFFSET 0.0246 -0.0008 -0.0039
                      CHANNELS 3 Zrotation Xrotation Yrotation
                      End Site
                      {
                        OFFSET 0.0246 -0.0008 -0.0039
                      }
                    }
                  }
                }
                JOINT Joint28
                {
                  OFFSET 0.0860 -0.0168 -0.0403
                  CHANNELS 3 Zrotation Xrotation Yrotation
                  JOINT Joint29
                  {
                    OFFSET 0.0158 -0.0006 -0.0114
                    CHANNELS 3 Zrotation Xrotation Yrotation
                    JOINT Joint30
                    {
                      OFFSET 0.0161 -0.0011 -0.0109
                      CHANNELS 3 Zrotation Xrotation Yrotation
                      End Site
                      {
                        OFFSET 0.0161 -0.0011 -0.0109
                      }
                    }
                  }
                }
                JOINT Joint31
                {
                  OFFSET 0.0999 -0.0111 -0.0238
                  CHANNELS 3 Zrotation Xrotation Yrotation
                  JOINT Joint32
                  {
                    OFFSET 0.0286 0.0023 -0.0053
                    CHANNELS 3 Zrotation Xrotation Yrotation
                    JOINT Joint33
                    {
                      OFFSET 0.0234 -0.0009 -0.0074
                      CHANNELS 3 Zrotation Xrotation Yrotation
                      End Site
                      {
                        OFFSET 0.0234 -0.0009 -0.0074
                      }
                    }
                  }
                }
                JOINT Joint34
                {
                  OFFSET 0.0426 -0.0219 0.0277
                  CHANNELS 3 Zrotation Xrotation Yrotation
                  JOINT Joint35
                  {
                    OFFSET 0.0185 0.0008 0.0246
                    CHANNELS 3 Zrotation Xrotation Yrotation
                    JOINT Joint36
                    {
                      OFFSET 0.0221 -0.0048 0.0152
                      CHANNELS 3 Zrotation Xrotation Yrotation
                      End Site
                      {
                        OFFSET 0.0221 -0.0048 0.0152
                      }
                    }
                  }
                }
              }
            }
          }
        }
        JOINT Joint14
        {
          OFFSET -0.0815 0.1251 -0.0492
          CHANNELS 3 Zrotation Xrotation Yrotation
          JOINT Joint17
          {
            OFFSET -0.0975 0.0385 -0.0099
            CHANNELS 3 Zrotation Xrotation Yrotation
            JOINT Joint19
            {
              OFFSET -0.2546 -0.0159 -0.0229
              CHANNELS 3 Zrotation Xrotation Yrotation
              JOINT Joint21
              {
                OFFSET -0.2519 0.0079 0.0007
                CHANNELS 3 Zrotation Xrotation Yrotation
                JOINT Joint37
                {
                  OFFSET -0.1043 -0.0103 0.0246
                  CHANNELS 3 Zrotation Xrotation Yrotation
                  JOINT Joint38
                  {
                    OFFSET -0.0341 0.0034 0.0025
                    CHANNELS 3 Zrotation Xrotation Yrotation
                    JOINT Joint39
                    {
                      OFFSET -0.0236 -0.0015 -0.0003
                      CHANNELS 3 Zrotation Xrotation Yrotation
                      End Site
                      {
                        OFFSET -0.0236 -0.0015 -0.0003
                      }
                    }
                  }
                }
                JOINT Joint40
                {
                  OFFSET -0.1123 -0.0074 -0.0003
                  CHANNELS 3 Zrotation Xrotation Yrotation
                  JOINT Joint41
                  {
                    OFFSET -0.0322 0.0016 -0.0048
                    CHANNELS 3 Zrotation Xrotation Yrotation
                    JOINT Joint42
                    {
                      OFFSET -0.0245 -0.0012 -0.0045
                      CHANNELS 3 Zrotation Xrotation Yrotation
                      End Site
                      {
                        OFFSET -0.0245 -0.0012 -0.0045
                      }
                    }
                  }
                }
                JOINT Joint43
                {
                  OFFSET -0.0863 -0.0161 -0.0419
                  CHANNELS 3 Zrotation Xrotation Yrotation
                  JOINT Joint44
                  {
                    OFFSET -0.0162 -0.0001 -0.0120
                    CHANNELS 3 Zrotation Xrotation Yrotation
                    JOINT Joint45
                    {
                      OFFSET -0.0165 -0.0007 -0.0110
                      CHANNELS 3 Zrotation Xrotation Yrotation
                      End Site
                      {
                        OFFSET -0.0165 -0.0007 -0.0110
                      }
                    }
                  }
                }
                JOINT Joint46
                {
                  OFFSET -0.0999 -0.0107 -0.0248
                  CHANNELS 3 Zrotation Xrotation Yrotation
                  JOINT Joint47
                  {
                    OFFSET -0.0290 0.0016 -0.0050
                    CHANNELS 3 Zrotation Xrotation Yrotation
                    JOINT Joint48
                    {
                      OFFSET -0.0236 -0.0012 -0.0076
                      CHANNELS 3 Zrotation Xrotation Yrotation
                      End Site
                      {
                        OFFSET -0.0236 -0.0012 -0.0076
                      }
                    }
                  }
                }
                JOINT Joint49
                {
                  OFFSET -0.0397 -0.0214 0.0306
                  CHANNELS 3 Zrotation Xrotation Yrotation
                  JOINT Joint50
                  {
                    OFFSET -0.0191 0.0007 0.0247
                    CHANNELS 3 Zrotation Xrotation Yrotation
                    JOINT Joint51
                    {
                      OFFSET -0.0231 -0.0056 0.0141
                      CHANNELS 3 Zrotation Xrotation Yrotation
                      End Site
                      {
                        OFFSET -0.0231 -0.0056 0.0141
                      }
                    }
                  }
                }
              }
            }
          }
        }
      }
    }
  }
}
MOTION
Frames: 6
Frame Time: 0.0333
0.0000 0.0000 0.0000 -67.7665 73.4106 19.5765 11.6619 -7.8762 -39.2710 -0.2910 31.4774 -27.5062 12.0928 -18.9318 16.1531 -0.4067 0.0330 0.4906 -11.9996 -24.7639 18.5931 21.9291 28.8536 -4.6084 11.3254 -31.0793 8.7692 0.4748 -0.4731 0.0072 -19.0774 -2.3468 15.6481 25.5345 0.8835 -1.4543 -17.3136 6.2610 29.8388 -2.5977 -1.2626 11.8029 17.1570 32.0343 -25.4117 -15.7740 4.2513 -23.9866 -47.8583 30.7287 -88.8390 41.1818 -37.4095 -98.2696 50.6185 1.2030 6.2987 -23.3276 5.6739 3.2730 -42.9542 7.3120 -1.0582 -11.4881 -4.8177 -5.7788 -30.2489 -7.4015 0.8450 -40.6016 -8.5949 -0.2562 -19.7729 -0.4638 -5.1138 -40.3423 -20.6919 -19.2267 -29.9859 -11.0069 -6.5975 -5.5238 -21.2936 -4.4728 -36.9218 -5.7016 -6.9008 -37.0836 -15.1358 -8.5844 -22.7339 -8.3636 -9.6170 -16.4966 46.5622 24.1722 3.7401 -28.2615 2.1211 -17.9328 30.0885 8.0587 3.0390 1.7096 49.6422 41.2764 -11.5814 25.2239 -78.0054 4.6708 81.3719 -22.9126 -6.8000 -4.2525 24.5913 5.4049 -4.0161 42.8592 7.4779 0.7565 10.9542 -5.4265 5.7535 30.2239 -7.0168 -0.9229 40.3897 -8.2713 0.1485 19.6234 -0.1922 5.7578 39.6233 -20.5141 19.4282 29.7971 -10.8903 6.7637 5.5504 -21.2672 4.4513 36.1611 -6.2433 7.3343 38.2614 -15.0540 8.3386 22.2133 -8.7423 9.1424 15.8557 46.9797 -23.5736 -4.2052 -28.6883 -2.1524 18.3899 29.3835 -7.8423
0.0000 0.0000 0.0000 -67.5148 73.4448 19.3082 11.7280 -8.0754 -39.1893 -0.3920 31.5618 -27.6410 12.0875 -18.8613 16.3136 -0.3504 0.0296 0.4191 -12.4547 -24.9508 18.1646 21.8308 28.8060 -4.5910 11.1092 -31.1689 8.3081 0.4904 -0.4403 -0.0620 -19.1784 -2.5800 15.8281 25.4186 1.0536 -1.2886 -17.5066 6.3430 30.0335 -2.5408 -1.1286 11.7439 16.7217 31.8654 -24.9786 -16.1163 4.2314 -24.0816 -47.5426 30.8549 -88.9645 41.0893 -37.8961 -98.4942 50.7745 1.1828 6.3377 -23.3808 5.5950 3.3208 -42.8612 7.3097 -1.0881 -11.5307 -4.8340 -5.7855 -30.2337 -7.4467 0.9117 -40.5865 -8.6217 -0.1926 -19.6990 -0.4222 -5.0565 -40.3959 -20.6449 -19.2791 -29.9444 -10.9528 -6.6658 -5.5083 -21.2811 -4.5842 -36.8417 -5.7096 -6.8468 -37.1896 -15.1133 -8.7649 -22.5750 -8.2742 -9.6159 -16.3891 46.6378 24.0820 3.7758 -28.1421 2.0522 -18.1175 30.0382 8.1717 2.9270 1.4089 49.6957 41.0119 -11.6370 25.2986 -78.1207 4.2576 81.3648 -22.8835 -6.7629 -4.1122 24.6184 5.3570 -4.0757 42.9116 7.4232 0.7017 10.8688 -5.4037 5.6494 30.1581 -6.9964 -1.0316 40.3220 -8.2902 0.1098 19.5459 -0.3089 5.7443 39.6338 -20.5394 19.4484 29.7608 -10.9088 6.7085 5.4943 -21.2217 4.3498 36.0896 -6.2484 7.3031 38.1328 -15.0164 8.2544 22.1361 -8.7992 9.1599 15.7281 46.9899 -23.5442 -4.1148 -28.6559 -2.0161 18.4376 29.3479 -7.9378
0.0000 0.0000 0.0000 -66.7258 73.4349 18.4564 11.6813 -8.2048 -39.2947 -0.4161 31.8514 -28.1591 12.2111 -18.8929 16.5073 -0.3946 -0.0249 0.3802 -12.6336 -25.0454 18.1776 21.9456 28.8346 -4.7689 11.1242 -31.4460 8.4913 0.4662 -0.4125 -0.0600 -19.5532 -2.9749 16.2266 25.4849 1.1535 -1.1584 -17.7180 6.2254 30.4476 -2.6132 -0.9381 11.8860 16.7134 32.0384 -25.1194 -16.1925 4.2280 -24.3540 -47.0881 30.9640 -89.1276 41.1180 -38.3607 -98.5327 51.2653 1.3042 6.4101 -23.3966 5.5935 3.4092 -42.8261 7.2967 -1.1137 -11.5537 -4.8539 -5.7542 -30.1827 -7.4507 1.0034 -40.5769 -8.6604 -0.2292 -19.6251 -0.3564 -5.0501 -40.4011 -20.6397 -19.3120 -29.9984 -10.9388 -6.7239 -5.5141 -21.1647 -4.6656 -36.8088 -5.7479 -6.7715 -37.2992 -15.0945 -8.8698 -22.5182 -8.2508 -9.5980 -16.3119 46.5883 24.0746 3.7222 -27.9751 1.9161 -18.1429 29.9807 8.2191 2.6868 1.1892 49.9738 40.8930 -11.5288 25.3689 -78.5054 3.9173 81.2220 -22.7677 -6.7995 -4.2062 24.5659 5.3542 -4.1057 42.9878 7.4273 0.7196 10.8378 -5.3603 5.6011 30.2619 -6.9334 -1.1305 40.2891 -8.2918 0.1362 19.5862 -0.3487 5.7599 39.6468 -20.5864 19.4743 29.7495 -10.9357 6.6533 5.4890 -21.2106 4.3854 36.1069 -6.1694 7.3350 38.1286 -14.9874 8.2940 22.0682 -8.8061 9.1754 15.7049 46.9209 -23.5295 -4.0090 -28.6693 -1.9386 18.4772 29.2983 -8.0763
0.0000 0.0000 0.0000 -65.9152 73.3964 17.5150 11.5356 -8.3186 -39.5192 -0.3475 32.0356 -28.7503 12.3665 -19.0111 16.7117 -0.4762 -0.0990 0.3577 -12.7059 -25.1274 18.4064 22.2074 28.9062 -4.9270 11.2231 -31.7632 8.9130 0.4242 -0.3997 -0.0680 -19.9143 -3.3156 16.7825 25.6925 1.2534 -1.0974 -17.8819 6.0318 30.8663 -2.7746 -0.8596 12.1260 16.9794 32.3485 -25.6654 -16.0374 4.2560 -24.6601 -46.6074 31.0403 -89.3262 41.2569 -38.7876 -98.4519 51.7532 1.4678 6.4361 -23.3936 5.6608 3.4401 -42.7990 7.2867 -1.1474 -11.5324 -4.8773 -5.7214 -30.1412 -7.4141 1.0691 -40.5577 -8.7153 -0.2674 -19.6217 -0.3317 -5.0004 -40.3656 -20.6424 -19.2893 -30.0686 -10.9846 -6.7369 -5.4873 -21.0149 -4.6640 -36.8029 -5.7924 -6.7241 -37.3725 -15.0604 -8.8876 -22.5727 -8.2984 -9.6259 -16.3392 46.5208 24.1518 3.6832 -27.8869 1.8493 -18.0367 30.0249 8.2236 2.4924 1.2004 50.3120 40.9007 -11.2945 25.4379 -78.9146 3.6559 81.0422 -22.6731 -6.9040 -4.4700 24.4541 5.3609 -4.1173 43.0759 7.4488 0.7874 10.8546 -5.3571 5.6006 30.4307 -6.9417 -1.1517 40.2260 -8.2913 0.1224 19.6474 -0.3075 5.7973 39.6821 -20.5839 19.5103 29.7615 -10.9440 6.6161 5.4907 -21.2195 4.4849 36.1701 -6.1390 7.3650 38.1802 -14.9822 8.3951 22.0760 -8.7906 9.1985 15.7486 46.8403 -23.6066 -3.9763 -28.6411 -1.9491 18.5450 29.2914 -8.1267
0.0000 0.0000 0.0000 -65.5506 73.3590 16.9186 11.4141 -8.4165 -39.6776 -0.2299 32.1170 -29.1653 12.4684 -19.1197 16.9064 -0.5313 -0.1325 0.3660 -12.9015 -25.2488 18.5277 22.4598 28.9954 -4.9361 11.2497 -31.9766 9.0986 0.3754 -0.3917 -0.0683 -20.0884 -3.5469 17.3275 25.9588 1.3576 -1.0258 -17.9862 5.8567 31.1937 -2.9387 -0.9029 12.2781 17.1640 32.4687 -26.0718 -15.8881 4.2509 -24.8730 -46.4034 30.9714 -89.3825 41.4067 -39.1960 -98.4253 51.9402 1.5346 6.3991 -23.4074 5.7024 3.3912 -42.8080 7.3050 -1.1596 -11.5270 -4.8848 -5.6939 -30.1572 -7.3852 1.0880 -40.5224 -8.7830 -0.2922 -19.6035 -0.3979 -5.0064 -40.3371 -20.6451 -19.2550 -30.0918 -11.0404 -6.7327 -5.4314 -20.9293 -4.6526 -36.8093 -5.8492 -6.6950 -37.4029 -15.0202 -8.9001 -22.7167 -8.3606 -9.6715 -16.4501 46.5354 24.2938 3.6662 -27.9642 1.8936 -17.9127 30.1412 8.2279 2.3913 1.2304 50.5102 40.9557 -11.0804 25.4661 -79.0729 3.4351 80.9255 -22.6151 -6.9997 -4.6940 24.3681 5.3488 -4.1284 43.1314 7.4317 0.8280 10.8739 -5.3763 5.6039 30.5135 -7.0025 -1.1197 40.2113 -8.3384 0.0830 19.6739 -0.2458 5.8012 39.7080 -20.5674 19.5674 29.7657 -10.8952 6.5878 5.4561 -21.2233 4.5401 36.1997 -6.2057 7.3430 38.2110 -15.0126 8.4537 22.0814 -8.7539 9.1913 15.8514 46.7895 -23.7681 -3.9974 -28.6097 -1.9807 18.5323 29.3438 -8.1312
0.0000 0.0000 0.0000 -65.6236 73.3182 16.7607 11.3721 -8.4445 -39.7325 -0.1713 32.1191 -29.3548 12.4632 -19.1308 17.0493 -0.5407 -0.1295 0.3790 -13.3242 -25.3815 18.4401 22.6544 29.0622 -4.8954 11.1983 -32.0511 8.9264 0.3476 -0.3948 -0.0759 -20.0608 -3.7074 17.7188 26.2376 1.5458 -0.9406 -18.0906 5.7590 31.4497 -3.1025 -1.0025 12.3014 17.1372 32.3415 -26.1336 -15.8481 4.1542 -25.0059 -46.6349 30.7919 -89.2029 41.4968 -39.6351 -98.5705 51.8104 1.4776 6.3681 -23.4596 5.7188 3.3186 -42.8211 7.3537 -1.1863 -11.5204 -4.8725 -5.6943 -30.2045 -7.3413 1.0830 -40.4849 -8.8422 -0.3113 -19.5296 -0.4015 -5.0596 -40.3389 -20.6256 -19.2202 -30.0432 -11.0451 -6.6949 -5.4208 -20.9350 -4.6186 -36.7969 -5.8658 -6.7026 -37.4077 -15.0059 -8.9169 -22.7941 -8.3877 -9.6667 -16.5753 46.5956 24.4380 3.7060 -28.0330 1.9824 -17.8709 30.2620 8.2301 2.3984 1.1968 50.5034 41.0186 -10.9530 25.4622 -78.9411 3.2867 80.9054 -22.6299 -7.0287 -4.7837 24.3649 5.3140 -4.1398 43.1278 7.3901 0.8255 10.8322 -5.4228 5.6129 30.5083 -7.0480 -1.0926 40.2693 -8.4056 0.0636 19.6645 -0.2201 5.7878 39.7191 -20.5688 19.6290 29.7622 -10.8392 6.5943 5.4212 -21.2228 4.5240 36.1828 -6.3679 7.3102 38.1836 -15.0381 8.4436 22.1403 -8.7469 9.1684 15.8837 46.7531 -23.8584 -4.0529 -28.5551 -2.0116 18.4533 29.4477 -8.1033
